<svg width="1339" height="319" viewBox="0 0 1339 319" fill="none" xmlns="http://www.w3.org/2000/svg">
<path d="M46.7971 0.25C46.7971 0.16 46.7771 0.08 46.7671 0C46.7671 0.19 46.7571 0.380007 46.7571 0.570007C46.7671 0.460007 46.7971 0.36 46.7971 0.25Z" fill="url(#paint0_linear_4383_30350)"/>
<path d="M288.537 173.67C278.177 171.53 272.037 176.68 269.847 186.82C269.117 190.2 268.407 193.6 267.587 196.96C262.307 218.58 251.447 237.11 235.557 252.49C219.587 267.94 195.317 265.59 182.077 247.88C171.187 233.31 172.957 221.26 188.447 204.47C209.137 182.05 208.377 148.85 186.727 128.66C164.557 107.99 130.317 109.41 109.867 131.86C90.647 152.96 91.667 184.98 114.047 206.59C135.767 227.57 120.207 254.73 101.087 260.59C87.437 264.77 74.587 262.68 63.867 252C45.447 233.65 34.377 211.61 29.797 186.13C28.017 176.23 21.727 171.9 12.107 173.45C2.75699 174.96 -0.602997 181.61 0.087003 190.55C0.357003 194 0.806991 197.47 1.63699 200.82C11.517 240.83 32.947 272.67 68.217 294.68C131.737 335.9 222.687 321.91 266.147 264.24C285.107 243.96 294.907 219.3 299.877 192.52C301.547 183.47 298.557 175.74 288.537 173.67Z" fill="url(#paint1_linear_4383_30350)"/>
<path d="M291.897 133.76C290.267 132.92 289.017 131.36 288.647 129.41C286.237 116.89 282.117 104.75 276.417 93.3401C270.637 81.7901 263.307 71.1201 254.617 61.6601C243.627 49.6801 230.677 39.8001 216.117 32.2901C209.257 28.7501 202.087 25.7801 194.787 23.4401C191.527 22.3801 189.727 18.9001 190.767 15.6301C191.817 12.3601 195.307 10.5701 198.577 11.6101C206.527 14.1601 214.337 17.4001 221.807 21.2501C237.667 29.4301 251.787 40.2001 263.767 53.2601C273.237 63.5801 281.227 75.2001 287.517 87.7901C293.727 100.21 298.207 113.42 300.837 127.06C301.487 130.43 299.277 133.68 295.917 134.33C294.487 134.62 293.087 134.38 291.897 133.76Z" fill="url(#paint2_linear_4383_30350)"/>
<path d="M6.50704 139.22C4.20704 138.03 2.80703 135.47 3.21703 132.77C5.66703 116.57 10.747 100.92 18.317 86.25C24.597 74.07 32.467 62.84 41.707 52.87C53.517 40.13 67.347 29.59 82.847 21.56C95.847 14.81 109.737 9.99 124.127 7.21C127.497 6.56 130.757 8.76998 131.397 12.13C132.047 15.5 129.847 18.75 126.477 19.4C113.257 21.95 100.507 26.38 88.567 32.58C74.347 39.96 61.657 49.62 50.827 61.31C42.347 70.46 35.127 80.76 29.367 91.94C22.417 105.4 17.757 119.76 15.507 134.62C14.997 138.01 11.827 140.34 8.43703 139.83C7.73703 139.73 7.08704 139.52 6.50704 139.22Z" fill="url(#paint3_linear_4383_30350)"/>
<path d="M70.247 120.03C67.197 118.46 66.007 114.71 67.577 111.66C71.037 104.94 75.287 98.66 80.187 92.99C84.957 87.47 90.367 82.5 96.287 78.2C103.947 72.64 112.387 68.2499 121.357 65.1599C129.387 62.3899 137.747 60.69 146.207 60.11C149.627 59.88 152.587 62.4599 152.827 65.8799C153.057 69.2999 150.477 72.2599 147.057 72.4999C139.687 72.9999 132.407 74.48 125.417 76.89C117.597 79.59 110.257 83.4099 103.587 88.2499C98.447 91.9799 93.737 96.3099 89.597 101.1C85.337 106.03 81.647 111.5 78.627 117.35C77.037 120.41 73.297 121.6 70.247 120.03Z" fill="url(#paint4_linear_4383_30350)"/>
<path d="M237.827 176.11C235.487 174.9 234.087 172.28 234.557 169.55C235.617 163.37 235.967 157.05 235.587 150.77C235.237 144.88 234.267 139.01 232.687 133.32C231.277 128.22 229.377 123.24 227.027 118.52C224.667 113.74 221.837 109.19 218.627 104.97C214.527 99.6 209.787 94.74 204.517 90.52C195.287 83.14 184.297 77.68 172.827 74.8C169.517 73.98 167.487 70.59 168.317 67.26C169.157 63.93 172.527 61.92 175.857 62.75C189.047 66.06 201.657 72.33 212.277 80.81C218.337 85.66 223.797 91.25 228.517 97.43C232.207 102.27 235.457 107.51 238.167 112.99C240.857 118.42 243.037 124.14 244.657 129.99C246.467 136.52 247.597 143.27 247.987 150.03C248.407 157.25 248.007 164.52 246.797 171.63C246.217 175.01 243.007 177.28 239.627 176.71C238.987 176.61 238.377 176.4 237.827 176.11Z" fill="url(#paint5_linear_4383_30350)"/>
<path d="M209.087 45.89C198.267 40.31 186.747 36.37 174.867 34.19C164.337 32.26 153.567 31.72 142.847 32.58C134.907 33.22 126.987 34.64 119.317 36.79C112.487 38.7 105.787 41.22 99.397 44.27C92.277 47.66 85.467 51.75 79.147 56.42C72.617 61.24 66.557 66.73 61.117 72.74C58.187 75.98 55.397 79.42 52.817 82.97C49.157 88.01 45.837 93.4 42.967 98.98C37.847 108.91 34.097 119.45 31.837 130.3C30.617 136.14 29.847 142.11 29.497 148.09C29.477 148.44 29.467 148.79 29.447 149.14C29.597 152.5 32.377 155.16 35.767 155.1C39.107 155.05 41.777 152.37 41.887 149.07C41.887 148.97 41.917 148.87 41.917 148.76C41.917 148.74 41.907 148.72 41.907 148.7C42.227 143.36 42.917 138.04 44.007 132.83C46.037 123.08 49.407 113.6 54.017 104.67C56.607 99.65 59.587 94.8 62.887 90.27C65.207 87.08 67.717 83.99 70.347 81.08C75.237 75.68 80.687 70.75 86.557 66.42C92.237 62.22 98.367 58.55 104.777 55.49C110.537 52.75 116.567 50.48 122.707 48.76C129.617 46.82 136.737 45.55 143.887 44.97C153.527 44.19 163.207 44.68 172.667 46.42C183.347 48.38 193.697 51.92 203.437 56.94C206.487 58.51 210.227 57.32 211.807 54.27C213.337 51.21 212.137 47.46 209.087 45.89Z" fill="url(#paint6_linear_4383_30350)"/>
<path d="M274.767 139.26C273.567 130.32 271.387 121.49 268.267 113.01C265.397 105.2 261.737 97.65 257.377 90.59C253.437 84.21 248.907 78.18 243.897 72.65C241.597 70.11 237.667 69.91 235.127 72.21C232.587 74.51 232.387 78.44 234.697 80.98C239.197 85.95 243.267 91.38 246.807 97.11C250.727 103.47 254.027 110.26 256.607 117.29C259.407 124.92 261.377 132.87 262.457 140.92C263.067 145.43 263.357 149.98 263.407 154.52L263.447 154.53C263.517 156.19 264.227 157.67 265.347 158.74C265.377 158.77 265.417 158.79 265.447 158.82C265.697 159.05 265.967 159.27 266.247 159.46C266.347 159.53 266.457 159.57 266.557 159.63C266.797 159.77 267.027 159.9 267.277 160.01C267.467 160.09 267.677 160.13 267.877 160.19C268.057 160.24 268.237 160.32 268.427 160.35C268.827 160.43 269.237 160.47 269.667 160.47C272.987 160.45 275.657 157.84 275.817 154.57C275.817 154.36 275.827 154.16 275.817 153.95C275.757 149.04 275.417 144.13 274.767 139.26Z" fill="url(#paint7_linear_4383_30350)"/>
<path d="M64.437 160.16C66.957 159.41 68.817 157.09 68.867 154.31C68.967 148.04 69.787 141.77 71.317 135.66C72.747 129.94 74.787 124.35 77.387 119.04C79.717 114.29 82.507 109.75 85.677 105.53C88.877 101.27 92.497 97.31 96.437 93.77C101.457 89.24 107.017 85.34 112.967 82.17C123.407 76.62 135.217 73.29 147.017 72.57C150.427 72.38 153.047 69.42 152.837 65.99C152.627 62.57 149.687 59.96 146.257 60.17C132.687 60.99 119.127 64.82 107.137 71.2C100.287 74.85 93.887 79.33 88.117 84.54C83.597 88.62 79.437 93.16 75.757 98.06C72.117 102.9 68.917 108.12 66.247 113.57C63.257 119.66 60.917 126.08 59.277 132.65C57.527 139.67 56.577 146.88 56.467 154.1C56.407 157.53 59.147 160.35 62.577 160.41C63.207 160.43 63.837 160.34 64.437 160.16Z" fill="url(#paint8_linear_4383_30350)"/>
<path d="M154.417 198.63V196.5C165.997 194.2 174.727 183.99 174.727 171.73C174.727 157.78 163.417 146.47 149.467 146.47C135.517 146.47 124.207 157.78 124.207 171.73C124.207 183.98 132.937 194.2 144.517 196.5V198.63C144.517 199.6 145.297 200.38 146.267 200.38H146.727V212.59H140.407L145.217 223.33L142.807 267.77L150.027 275.41L157.107 267.2L153.987 223.24L158.527 212.59H152.837V200.36C153.717 200.28 154.417 199.54 154.417 198.63Z" fill="white"/>
<path d="M178 188L191 201L219 173" fill="none" stroke="white" stroke-width="10" stroke-linecap="round" stroke-linejoin="round"/>
<path d="M138.067 160.91C138.317 160.61 138.577 160.32 138.627 159.9C138.697 159.15 137.967 158.6 137.247 158.88C136.927 159 136.687 159.23 136.477 159.49C131.597 165.47 130.537 172.03 133.467 179.19C133.927 180.33 134.477 180.69 135.127 180.43C135.827 180.15 135.887 179.55 135.397 178.33C132.837 172 133.687 166.18 138.067 160.91Z" fill="url(#paint9_linear_4383_30350)"/>
<path d="M147.987 153.47C146.137 153.72 144.347 154.18 142.657 154.96C142.297 155.12 141.947 155.29 141.727 155.63C141.497 155.98 141.467 156.36 141.677 156.73C141.877 157.07 142.187 157.22 142.647 157.2C142.787 157.15 142.997 157.11 143.187 157.02C144.827 156.25 146.547 155.79 148.337 155.53C149.037 155.43 149.547 155.13 149.497 154.33C149.447 153.69 148.857 153.35 147.987 153.47Z" fill="url(#paint10_linear_4383_30350)"/>
<path d="M429.407 236.28C411.927 236.28 397.137 231.93 385.037 223.25C372.937 214.57 364.557 203.91 359.907 191.29L393.417 180.95C396.417 188.29 401.177 194.19 407.797 198.74C414.417 203.29 422.377 205.57 431.687 205.57C438.617 205.57 444.197 204.22 448.437 201.43C452.677 198.64 454.847 195.33 454.847 191.5C454.847 185.4 449.577 180.64 438.917 177.23L400.757 165.44C390.417 162.23 382.147 157.17 375.937 150.34C369.737 143.51 366.737 135.45 366.837 126.14C366.737 113.83 371.907 103.39 382.347 94.8C392.797 86.22 405.927 81.87 421.747 81.87C437.367 81.87 451.227 85.59 463.217 93.14C475.217 100.69 483.277 109.89 487.317 120.75L454.947 130.26C451.947 124.99 447.497 120.75 441.607 117.44C435.717 114.13 429.197 112.47 422.057 112.47C416.167 112.47 411.407 113.61 407.787 115.88C404.167 118.16 402.407 121.05 402.407 124.57C402.407 129.64 405.717 133.15 412.337 135.12L449.667 147.01C462.597 151.04 472.627 156.11 479.667 162.21C486.697 168.31 490.217 177.1 490.217 188.58C490.217 202.03 484.637 213.19 473.367 222.19C462.087 231.19 447.407 235.63 429.307 235.63L429.407 236.28Z" fill="white"/>
<path d="M676.377 133.89C684.137 142.06 688.067 153.75 688.067 168.95V232.65H654.247V176.5C654.247 160.88 648.557 153.02 637.077 153.02C624.567 153.02 618.257 161.71 618.157 179.08V232.65H584.327V176.5C584.327 160.88 578.637 153.02 567.157 153.02C554.647 153.02 548.337 161.71 548.337 179.08V232.65H514.417V124.69H548.337V135.24C556.097 126.24 566.027 121.69 578.127 121.69C592.397 121.69 602.837 126.45 609.457 136.07C618.457 126.45 630.347 121.69 645.037 121.69C658.177 121.68 668.617 125.72 676.377 133.89Z" fill="white"/>
<path d="M763.647 235.65C748.957 235.65 736.547 230.17 726.417 219.31C716.287 208.45 711.217 194.9 711.217 178.66C711.217 162.43 716.287 148.88 726.417 138.02C736.547 127.16 748.957 121.68 763.647 121.68C776.477 121.68 786.817 126.02 794.777 134.61V124.68H828.697V232.65H794.777V222.72C786.607 231.3 776.267 235.65 763.747 235.65H763.647ZM769.747 205.66C777.297 205.66 783.507 203.18 788.367 198.11C793.227 193.04 795.707 186.53 795.707 178.56C795.707 170.6 793.227 164.18 788.367 159.22C783.507 154.26 777.307 151.77 769.857 151.77C762.517 151.77 756.517 154.25 751.757 159.22C746.997 164.18 744.617 170.59 744.617 178.56C744.617 186.63 746.997 193.14 751.757 198.11C756.517 203.07 762.507 205.56 769.857 205.56L769.747 205.66Z" fill="white"/>
<path d="M893.237 139.06C896.447 133.16 900.997 128.72 906.787 125.82C912.577 122.92 919.297 121.99 927.057 122.92V154.67C915.477 152.7 906.997 154.36 901.507 159.63C896.027 164.91 893.337 174.21 893.337 187.55V232.64H859.417V124.69H893.337V139.27L893.237 139.06Z" fill="white"/>
<path d="M1024.49 229.14C1015.6 232.66 1006.81 234.41 998.007 234.41C985.287 234.41 975.777 230.79 969.367 223.55C962.957 216.31 959.747 206.39 959.747 193.67V154.27H942.997V124.69H959.747V90.77H993.667V124.69H1022.73V154.27H993.667V193.67C993.667 201.22 997.387 204.94 1004.84 204.94C1008.98 204.94 1012.8 204.01 1016.32 202.15L1024.49 229.14Z" fill="white"/>
<path d="M454.172 244.914L470.223 285L461.418 285L457.918 275.895L441.895 275.895L438.586 285L430 285L445.613 244.914L454.172 244.914ZM444.383 269.141L455.320 269.141L449.797 254.266L444.383 269.141ZM482.527 255.961L487.777 255.961L487.777 262.086L482.527 262.086L482.527 273.789Q482.527 277.344 482.678 277.932Q482.828 278.520 483.361 278.902Q483.895 279.285 484.660 279.285L484.660 279.285Q485.727 279.285 487.750 278.547L487.750 278.547L488.406 284.508Q485.727 285.656 482.336 285.656L482.336 285.656Q480.258 285.656 478.590 284.959Q476.922 284.262 476.143 283.154Q475.363 282.047 475.063 280.160L475.063 280.160Q474.816 278.820 474.816 274.746L474.816 274.746L474.816 262.086L471.289 262.086L471.289 255.961L474.816 255.961L474.816 250.191L482.527 245.707L482.527 255.961ZM501.176 255.961L506.426 255.961L506.426 262.086L501.176 262.086L501.176 273.789Q501.176 277.344 501.326 277.932Q501.477 278.520 502.010 278.902Q502.543 279.285 503.309 279.285L503.309 279.285Q504.375 279.285 506.398 278.547L506.398 278.547L507.055 284.508Q504.375 285.656 500.984 285.656L500.984 285.656Q498.906 285.656 497.238 284.959Q495.570 284.262 494.791 283.154Q494.012 282.047 493.711 280.160L493.711 280.160Q493.465 278.820 493.465 274.746L493.465 274.746L493.465 262.086L489.938 262.086L489.938 255.961L493.465 255.961L493.465 250.191L501.176 245.707L501.176 255.961ZM528.574 275.758L528.574 275.758L536.230 277.043Q534.754 281.254 531.568 283.455Q528.383 285.656 523.598 285.656L523.598 285.656Q516.023 285.656 512.387 280.707L512.387 280.707Q509.516 276.742 509.516 270.699L509.516 270.699Q509.516 263.480 513.289 259.393Q517.063 255.305 522.832 255.305L522.832 255.305Q529.313 255.305 533.059 259.584Q536.805 263.863 536.641 272.695L536.641 272.695L517.391 272.695Q517.473 276.113 519.250 278.014Q521.027 279.914 523.680 279.914L523.680 279.914Q525.484 279.914 526.715 278.930Q527.945 277.945 528.574 275.758ZM517.527 267.992L529.012 267.992Q528.930 264.656 527.289 262.920Q525.648 261.184 523.297 261.184L523.297 261.184Q520.781 261.184 519.141 263.016L519.141 263.016Q517.500 264.848 517.527 267.992L517.527 267.992ZM569.316 266.953L569.316 285L561.633 285L561.633 270.180Q561.633 265.477 561.141 264.096Q560.648 262.715 559.541 261.949Q558.434 261.184 556.875 261.184L556.875 261.184Q554.879 261.184 553.293 262.277Q551.707 263.371 551.119 265.176Q550.531 266.980 550.531 271.848L550.531 271.848L550.531 285L542.848 285L542.848 255.961L549.984 255.961L549.984 260.227Q553.785 255.305 559.555 255.305L559.555 255.305Q562.098 255.305 564.203 256.221Q566.309 257.137 567.389 258.559Q568.469 259.980 568.893 261.785Q569.316 263.590 569.316 266.953L569.316 266.953ZM603.742 244.914L603.742 285L596.605 285L596.605 280.734Q594.828 283.223 592.408 284.439Q589.988 285.656 587.527 285.656L587.527 285.656Q582.523 285.656 578.955 281.623Q575.387 277.590 575.387 270.371L575.387 270.371Q575.387 262.988 578.859 259.146Q582.332 255.305 587.637 255.305L587.637 255.305Q592.504 255.305 596.059 259.352L596.059 259.352L596.059 244.914L603.742 244.914ZM583.234 269.852L583.234 269.852Q583.234 274.500 584.520 276.578L584.520 276.578Q586.379 279.586 589.715 279.586L589.715 279.586Q592.367 279.586 594.227 277.330Q596.086 275.074 596.086 270.590L596.086 270.590Q596.086 265.586 594.281 263.385Q592.477 261.184 589.660 261.184L589.660 261.184Q586.926 261.184 585.080 263.357Q583.234 265.531 583.234 269.852ZM617.059 264.820L617.059 264.820L610.086 263.563Q611.262 259.352 614.133 257.328Q617.004 255.305 622.664 255.305L622.664 255.305Q627.805 255.305 630.320 256.521Q632.836 257.738 633.861 259.611Q634.887 261.484 634.887 266.488L634.887 266.488L634.805 275.457Q634.805 279.285 635.174 281.104Q635.543 282.922 636.555 285L636.555 285L628.953 285Q628.652 284.234 628.215 282.730L628.215 282.730Q628.023 282.047 627.941 281.828L627.941 281.828Q625.973 283.742 623.730 284.699Q621.488 285.656 618.945 285.656L618.945 285.656Q614.461 285.656 611.877 283.223Q609.293 280.789 609.293 277.070L609.293 277.070Q609.293 274.609 610.469 272.682Q611.645 270.754 613.764 269.729Q615.883 268.703 619.875 267.938L619.875 267.938Q625.262 266.926 627.340 266.051L627.340 266.051L627.340 265.285Q627.340 263.070 626.246 262.127Q625.152 261.184 622.117 261.184L622.117 261.184Q620.066 261.184 618.918 261.990Q617.770 262.797 617.059 264.820ZM627.340 272.586L627.340 271.055Q625.863 271.547 622.664 272.230Q619.465 272.914 618.480 273.570L618.480 273.570Q616.977 274.637 616.977 276.277L616.977 276.277Q616.977 277.891 618.180 279.066Q619.383 280.242 621.242 280.242L621.242 280.242Q623.320 280.242 625.207 278.875L625.207 278.875Q626.602 277.836 627.039 276.332L627.039 276.332Q627.340 275.348 627.340 272.586ZM668.875 266.953L668.875 285L661.191 285L661.191 270.180Q661.191 265.477 660.699 264.096Q660.207 262.715 659.100 261.949Q657.992 261.184 656.434 261.184L656.434 261.184Q654.438 261.184 652.852 262.277Q651.266 263.371 650.678 265.176Q650.090 266.980 650.090 271.848L650.090 271.848L650.090 285L642.406 285L642.406 255.961L649.543 255.961L649.543 260.227Q653.344 255.305 659.113 255.305L659.113 255.305Q661.656 255.305 663.762 256.221Q665.867 257.137 666.947 258.559Q668.027 259.980 668.451 261.785Q668.875 263.590 668.875 266.953L668.875 266.953ZM701.988 264.547L701.988 264.547L694.414 265.914Q694.031 263.645 692.678 262.496Q691.324 261.348 689.164 261.348L689.164 261.348Q686.293 261.348 684.584 263.330Q682.875 265.313 682.875 269.961L682.875 269.961Q682.875 275.129 684.611 277.262Q686.348 279.395 689.273 279.395L689.273 279.395Q691.461 279.395 692.855 278.150Q694.250 276.906 694.824 273.871L694.824 273.871L702.371 275.156Q701.195 280.352 697.859 283.004Q694.523 285.656 688.918 285.656L688.918 285.656Q682.547 285.656 678.760 281.637Q674.973 277.617 674.973 270.508L674.973 270.508Q674.973 263.316 678.773 259.311Q682.574 255.305 689.055 255.305L689.055 255.305Q694.359 255.305 697.490 257.588Q700.621 259.871 701.988 264.547ZM724.629 275.758L724.629 275.758L732.285 277.043Q730.809 281.254 727.623 283.455Q724.438 285.656 719.652 285.656L719.652 285.656Q712.078 285.656 708.441 280.707L708.441 280.707Q705.570 276.742 705.570 270.699L705.570 270.699Q705.570 263.480 709.344 259.393Q713.117 255.305 718.887 255.305L718.887 255.305Q725.367 255.305 729.113 259.584Q732.859 263.863 732.695 272.695L732.695 272.695L713.445 272.695Q713.527 276.113 715.305 278.014Q717.082 279.914 719.734 279.914L719.734 279.914Q721.539 279.914 722.770 278.930Q724 277.945 724.629 275.758ZM713.582 267.992L725.066 267.992Q724.984 264.656 723.344 262.920Q721.703 261.184 719.352 261.184L719.352 261.184Q716.836 261.184 715.195 263.016L715.195 263.016Q713.555 264.848 713.582 267.992L713.582 267.992Z" fill="white"/>
<defs>
<linearGradient id="paint0_linear_4383_30350" x1="35.2875" y1="0.281704" x2="46.7932" y2="0.281704" gradientUnits="userSpaceOnUse">
<stop stop-color="#2DA17C"/>
<stop offset="1" stop-color="#557ABC"/>
</linearGradient>
<linearGradient id="paint1_linear_4383_30350" x1="168.86" y1="141.073" x2="101.045" y2="325.226" gradientUnits="userSpaceOnUse">
<stop stop-color="#E12751"/>
<stop offset="1" stop-color="#F58229"/>
</linearGradient>
<linearGradient id="paint2_linear_4383_30350" x1="190.461" y1="72.8878" x2="300.95" y2="72.8878" gradientUnits="userSpaceOnUse">
<stop stop-color="#E12751"/>
<stop offset="1" stop-color="#F58229"/>
</linearGradient>
<linearGradient id="paint3_linear_4383_30350" x1="3.14243" y1="73.5048" x2="131.506" y2="73.5048" gradientUnits="userSpaceOnUse">
<stop stop-color="#E12751"/>
<stop offset="1" stop-color="#F58229"/>
</linearGradient>
<linearGradient id="paint4_linear_4383_30350" x1="66.8835" y1="90.4114" x2="152.835" y2="90.4114" gradientUnits="userSpaceOnUse">
<stop stop-color="#E12751"/>
<stop offset="1" stop-color="#F58229"/>
</linearGradient>
<linearGradient id="paint5_linear_4383_30350" x1="168.139" y1="119.687" x2="248.154" y2="119.687" gradientUnits="userSpaceOnUse">
<stop stop-color="#E12751"/>
<stop offset="1" stop-color="#F58229"/>
</linearGradient>
<linearGradient id="paint6_linear_4383_30350" x1="29.4196" y1="93.636" x2="212.455" y2="93.636" gradientUnits="userSpaceOnUse">
<stop stop-color="#E12751"/>
<stop offset="1" stop-color="#F58229"/>
</linearGradient>
<linearGradient id="paint7_linear_4383_30350" x1="233.098" y1="115.534" x2="275.83" y2="115.534" gradientUnits="userSpaceOnUse">
<stop stop-color="#E12751"/>
<stop offset="1" stop-color="#F58229"/>
</linearGradient>
<linearGradient id="paint8_linear_4383_30350" x1="143.349" y1="117.543" x2="64.71" y2="102.78" gradientUnits="userSpaceOnUse">
<stop stop-color="#E12751"/>
<stop offset="1" stop-color="#F58229"/>
</linearGradient>
<linearGradient id="paint9_linear_4383_30350" x1="140.683" y1="147.478" x2="129.177" y2="192.394" gradientUnits="userSpaceOnUse">
<stop stop-color="#E12751"/>
<stop offset="1" stop-color="#F58229"/>
</linearGradient>
<linearGradient id="paint10_linear_4383_30350" x1="158.279" y1="143.882" x2="128.966" y2="170.194" gradientUnits="userSpaceOnUse">
<stop stop-color="#E12751"/>
<stop offset="1" stop-color="#F58229"/>
</linearGradient>
</defs>
</svg>
